<svg width="16" height="15" viewBox="0 0 16 15" fill="none" xmlns="http://www.w3.org/2000/svg">
<g clip-path="url(#clip0_1_555)">
<path d="M16 7.69993C16 11.6875 12.4183 14.9201 8 14.9201C3.58172 14.9201 0 11.6875 0 7.69993C0 3.71233 3.58172 0.479736 8 0.479736C12.4183 0.479736 16 3.71233 16 7.69993Z" fill="#FD8900"/>
<path d="M7.44207 9.18006C7.28341 9.18006 7.20407 9.10846 7.20407 8.96526L7.03607 3.5826C7.03607 3.4394 7.11074 3.3678 7.26007 3.3678H8.75807C8.90741 3.3678 8.98207 3.4394 8.98207 3.5826L8.80007 8.96526C8.80007 9.10846 8.71607 9.18006 8.54807 9.18006H7.44207ZM7.97407 12.1999C7.61007 12.1999 7.30674 12.0946 7.06407 11.884C6.82141 11.665 6.70007 11.4039 6.70007 11.1006C6.70007 10.8058 6.82607 10.5531 7.07807 10.3425C7.33941 10.1235 7.63807 10.014 7.97407 10.014C8.31007 10.014 8.60874 10.1235 8.87007 10.3425C9.13141 10.5531 9.26207 10.8058 9.26207 11.1006C9.26207 11.4039 9.13607 11.665 8.88407 11.884C8.64141 12.0946 8.33807 12.1999 7.97407 12.1999Z" fill="white"/>
</g>
<defs>
<clipPath id="clip0_1_555">
<rect width="16" height="14.4404" fill="white" transform="translate(0 0.479736)"/>
</clipPath>
</defs>
</svg>
