<svg width="16" height="15" viewBox="0 0 16 15" fill="none" xmlns="http://www.w3.org/2000/svg">
<path d="M16 7.75041C16 11.738 12.4183 14.9706 8 14.9706C3.58172 14.9706 0 11.738 0 7.75041C0 3.76281 3.58172 0.530212 8 0.530212C12.4183 0.530212 16 3.76281 16 7.75041Z" fill="#01CC9B"/>
<path fill-rule="evenodd" clip-rule="evenodd" d="M12.7071 5.30719C13.0976 5.65965 13.0976 6.2311 12.7071 6.58355L7.1 11.6441L4.29289 9.11062C3.90237 8.75816 3.90237 8.18672 4.29289 7.83426C4.68342 7.4818 5.31658 7.4818 5.70711 7.83426L7.1 9.09138L11.2929 5.30719C11.6834 4.95473 12.3166 4.95473 12.7071 5.30719Z" fill="white"/>
</svg>
